MatrixSansScreen-Regular.ufo
<glyph name="quotedbl" format="2">
  <advance width="400"/>
  <unicode hex="0022"/>
  <outline>
    <contour>
      <point x="56.0" y="606.0" type="line"/>
      <point x="56.0" y="694.0" type="line"/>
      <point x="144.0" y="694.0" type="line"/>
      <point x="144.0" y="606.0" type="line"/>
    </contour>
    <contour>
      <point x="256.0" y="606.0" type="line"/>
      <point x="256.0" y="694.0" type="line"/>
      <point x="344.0" y="694.0" type="line"/>
      <point x="344.0" y="606.0" type="line"/>
    </contour>
    <contour>
      <point x="56.0" y="506.0" type="line"/>
      <point x="56.0" y="594.0" type="line"/>
      <point x="144.0" y="594.0" type="line"/>
      <point x="144.0" y="506.0" type="line"/>
    </contour>
    <contour>
      <point x="256.0" y="506.0" type="line"/>
      <point x="256.0" y="594.0" type="line"/>
      <point x="344.0" y="594.0" type="line"/>
      <point x="344.0" y="506.0" type="line"/>
    </contour>
    <contour>
      <point x="56.0" y="406.0" type="line"/>
      <point x="56.0" y="494.0" type="line"/>
      <point x="144.0" y="494.0" type="line"/>
      <point x="144.0" y="406.0" type="line"/>
    </contour>
    <contour>
      <point x="256.0" y="406.0" type="line"/>
      <point x="256.0" y="494.0" type="line"/>
      <point x="344.0" y="494.0" type="line"/>
      <point x="344.0" y="406.0" type="line"/>
    </contour>
  </outline>
</glyph>
<glyph name="ampersand" format="2">
  <advance width="600"/>
  <unicode hex="0026"/>
  <outline>
    <contour>
      <point x="199.559570312" y="649.559570312" type="line"/>
      <point x="199.559570312" y="737.559570312" type="line"/>
      <point x="287.559570312" y="737.559570312" type="line"/>
      <point x="287.559570312" y="649.559570312" type="line"/>
    </contour>
    <contour>
      <point x="99.5595703125" y="549.559570312" type="line"/>
      <point x="99.5595703125" y="637.559570312" type="line"/>
      <point x="187.559570312" y="637.559570312" type="line"/>
      <point x="187.559570312" y="549.559570312" type="line"/>
    </contour>
    <contour>
      <point x="299.559570312" y="549.559570312" type="line"/>
      <point x="299.559570312" y="637.559570312" type="line"/>
      <point x="387.559570312" y="637.559570312" type="line"/>
      <point x="387.559570312" y="549.559570312" type="line"/>
    </contour>
    <contour>
      <point x="99.5595703125" y="449.559570312" type="line"/>
      <point x="99.5595703125" y="537.559570312" type="line"/>
      <point x="187.559570312" y="537.559570312" type="line"/>
      <point x="187.559570312" y="449.559570312" type="line"/>
    </contour>
    <contour>
      <point x="299.559570312" y="449.559570312" type="line"/>
      <point x="299.559570312" y="537.559570312" type="line"/>
      <point x="387.559570312" y="537.559570312" type="line"/>
      <point x="387.559570312" y="449.559570312" type="line"/>
    </contour>
    <contour>
      <point x="199.559570312" y="349.559570312" type="line"/>
      <point x="199.559570312" y="437.559570312" type="line"/>
      <point x="287.559570312" y="437.559570312" type="line"/>
      <point x="287.559570312" y="349.559570312" type="line"/>
    </contour>
    <contour>
      <point x="99.5595703125" y="249.559570312" type="line"/>
      <point x="99.5595703125" y="337.559570312" type="line"/>
      <point x="187.559570312" y="337.559570312" type="line"/>
      <point x="187.559570312" y="249.559570312" type="line"/>
    </contour>
    <contour>
      <point x="299.559570312" y="249.559570312" type="line"/>
      <point x="299.559570312" y="337.559570312" type="line"/>
      <point x="387.559570312" y="337.559570312" type="line"/>
      <point x="387.559570312" y="249.559570312" type="line"/>
    </contour>
    <contour>
      <point x="499.559570312" y="249.559570312" type="line"/>
      <point x="499.559570312" y="337.559570312" type="line"/>
      <point x="587.559570312" y="337.559570312" type="line"/>
      <point x="587.559570312" y="249.559570312" type="line"/>
    </contour>
    <contour>
      <point x="99.5595703125" y="149.559570312" type="line"/>
      <point x="99.5595703125" y="237.559570312" type="line"/>
      <point x="187.559570312" y="237.559570312" type="line"/>
      <point x="187.559570312" y="149.559570312" type="line"/>
    </contour>
    <contour>
      <point x="399.559570312" y="149.559570312" type="line"/>
      <point x="399.559570312" y="237.559570312" type="line"/>
      <point x="487.559570312" y="237.559570312" type="line"/>
      <point x="487.559570312" y="149.559570312" type="line"/>
    </contour>
    <contour>
      <point x="199.559570312" y="49.5595703125" type="line"/>
      <point x="199.559570312" y="137.559570312" type="line"/>
      <point x="287.559570312" y="137.559570312" type="line"/>
      <point x="287.559570312" y="49.5595703125" type="line"/>
    </contour>
    <contour>
      <point x="299.559570312" y="49.5595703125" type="line"/>
      <point x="299.559570312" y="137.559570312" type="line"/>
      <point x="387.559570312" y="137.559570312" type="line"/>
      <point x="387.559570312" y="49.5595703125" type="line"/>
    </contour>
    <contour>
      <point x="499.559570312" y="49.5595703125" type="line"/>
      <point x="499.559570312" y="137.559570312" type="line"/>
      <point x="587.559570312" y="137.559570312" type="line"/>
      <point x="587.559570312" y="49.5595703125" type="line"/>
    </contour>
  </outline>
</glyph>
<glyph name="quotesingle" format="2">
  <advance width="200"/>
  <unicode hex="0027"/>
  <outline>
    <contour>
      <point x="99.5595703125" y="649.559570312" type="line"/>
      <point x="99.5595703125" y="737.559570312" type="line"/>
      <point x="187.559570312" y="737.559570312" type="line"/>
      <point x="187.559570312" y="649.559570312" type="line"/>
    </contour>
    <contour>
      <point x="99.5595703125" y="549.559570312" type="line"/>
      <point x="99.5595703125" y="637.559570312" type="line"/>
      <point x="187.559570312" y="637.559570312" type="line"/>
      <point x="187.559570312" y="549.559570312" type="line"/>
    </contour>
    <contour>
      <point x="99.5595703125" y="449.559570312" type="line"/>
      <point x="99.5595703125" y="537.559570312" type="line"/>
      <point x="187.559570312" y="537.559570312" type="line"/>
      <point x="187.559570312" y="449.559570312" type="line"/>
    </contour>
  </outline>
</glyph>
<glyph name="hyphen" format="2">
  <advance width="500"/>
  <unicode hex="002D"/>
  <outline>
    <contour>
      <point x="57.0" y="307.0" type="line"/>
      <point x="57.0" y="393.0" type="line"/>
      <point x="143.0" y="393.0" type="line"/>
      <point x="143.0" y="307.0" type="line"/>
    </contour>
    <contour>
      <point x="157.0" y="307.0" type="line"/>
      <point x="157.0" y="393.0" type="line"/>
      <point x="243.0" y="393.0" type="line"/>
      <point x="243.0" y="307.0" type="line"/>
    </contour>
    <contour>
      <point x="257.0" y="307.0" type="line"/>
      <point x="257.0" y="393.0" type="line"/>
      <point x="343.0" y="393.0" type="line"/>
      <point x="343.0" y="307.0" type="line"/>
    </contour>
    <contour>
      <point x="357.0" y="307.0" type="line"/>
      <point x="357.0" y="393.0" type="line"/>
      <point x="443.0" y="393.0" type="line"/>
      <point x="443.0" y="307.0" type="line"/>
    </contour>
  </outline>
</glyph>
<glyph name="period" format="2">
  <advance width="200"/>
  <unicode hex="002E"/>
  <outline>
    <contour>
      <point x="99.5595703125" y="49.5595703125" type="line"/>
      <point x="99.5595703125" y="137.559570312" type="line"/>
      <point x="187.559570312" y="137.559570312" type="line"/>
      <point x="187.559570312" y="49.5595703125" type="line"/>
    </contour>
  </outline>
</glyph>
<glyph name="colon" format="2">
  <advance width="200"/>
  <unicode hex="003A"/>
  <outline>
    <contour>
      <point x="56.0" y="406.0" type="line"/>
      <point x="56.0" y="494.0" type="line"/>
      <point x="144.0" y="494.0" type="line"/>
      <point x="144.0" y="406.0" type="line"/>
    </contour>
    <contour>
      <point x="56.0" y="6.0" type="line"/>
      <point x="56.0" y="94.0" type="line"/>
      <point x="144.0" y="94.0" type="line"/>
      <point x="144.0" y="6.0" type="line"/>
    </contour>
  </outline>
</glyph>
<glyph name="semicolon" format="2">
  <advance width="300"/>
  <unicode hex="003B"/>
  <outline>
    <contour>
      <point x="199.559570312" y="449.559570312" type="line"/>
      <point x="199.559570312" y="537.559570312" type="line"/>
      <point x="287.559570312" y="537.559570312" type="line"/>
      <point x="287.559570312" y="449.559570312" type="line"/>
    </contour>
    <contour>
      <point x="199.559570312" y="149.559570312" type="line"/>
      <point x="199.559570312" y="237.559570312" type="line"/>
      <point x="287.559570312" y="237.559570312" type="line"/>
      <point x="287.559570312" y="149.559570312" type="line"/>
    </contour>
    <contour>
      <point x="199.559570312" y="49.5595703125" type="line"/>
      <point x="199.559570312" y="137.559570312" type="line"/>
      <point x="287.559570312" y="137.559570312" type="line"/>
      <point x="287.559570312" y="49.5595703125" type="line"/>
    </contour>
    <contour>
      <point x="99.5595703125" y="-50.4404296875" type="line"/>
      <point x="99.5595703125" y="37.5595703125" type="line"/>
      <point x="187.559570312" y="37.5595703125" type="line"/>
      <point x="187.559570312" y="-50.4404296875" type="line"/>
    </contour>
  </outline>
</glyph>
<glyph name="greater" format="2">
  <advance width="400"/>
  <unicode hex="003E"/>
  <outline>
    <contour>
      <point x="99.5595703125" y="549.559570312" type="line"/>
      <point x="99.5595703125" y="637.559570312" type="line"/>
      <point x="187.559570312" y="637.559570312" type="line"/>
      <point x="187.559570312" y="549.559570312" type="line"/>
    </contour>
    <contour>
      <point x="199.559570312" y="449.559570312" type="line"/>
      <point x="199.559570312" y="537.559570312" type="line"/>
      <point x="287.559570312" y="537.559570312" type="line"/>
      <point x="287.559570312" y="449.559570312" type="line"/>
    </contour>
    <contour>
      <point x="299.559570312" y="349.559570312" type="line"/>
      <point x="299.559570312" y="437.559570312" type="line"/>
      <point x="387.559570312" y="437.559570312" type="line"/>
      <point x="387.559570312" y="349.559570312" type="line"/>
    </contour>
    <contour>
      <point x="199.559570312" y="249.559570312" type="line"/>
      <point x="199.559570312" y="337.559570312" type="line"/>
      <point x="287.559570312" y="337.559570312" type="line"/>
      <point x="287.559570312" y="249.559570312" type="line"/>
    </contour>
    <contour>
      <point x="99.5595703125" y="149.559570312" type="line"/>
      <point x="99.5595703125" y="237.559570312" type="line"/>
      <point x="187.559570312" y="237.559570312" type="line"/>
      <point x="187.559570312" y="149.559570312" type="line"/>
    </contour>
  </outline>
</glyph>
<glyph name="underscore" format="2">
  <advance width="600"/>
  <unicode hex="005F"/>
  <outline>
    <contour>
      <point x="49.5595703125" y="-50.4404296875" type="line"/>
      <point x="49.5595703125" y="37.5595703125" type="line"/>
      <point x="137.559570312" y="37.5595703125" type="line"/>
      <point x="137.559570312" y="-50.4404296875" type="line"/>
    </contour>
    <contour>
      <point x="149.559570312" y="-50.4404296875" type="line"/>
      <point x="149.559570312" y="37.5595703125" type="line"/>
      <point x="237.559570312" y="37.5595703125" type="line"/>
      <point x="237.559570312" y="-50.4404296875" type="line"/>
    </contour>
    <contour>
      <point x="249.559570312" y="-50.4404296875" type="line"/>
      <point x="249.559570312" y="37.5595703125" type="line"/>
      <point x="337.559570312" y="37.5595703125" type="line"/>
      <point x="337.559570312" y="-50.4404296875" type="line"/>
    </contour>
    <contour>
      <point x="349.559570312" y="-50.4404296875" type="line"/>
      <point x="349.559570312" y="37.5595703125" type="line"/>
      <point x="437.559570312" y="37.5595703125" type="line"/>
      <point x="437.559570312" y="-50.4404296875" type="line"/>
    </contour>
    <contour>
      <point x="449.559570312" y="-50.4404296875" type="line"/>
      <point x="449.559570312" y="37.5595703125" type="line"/>
      <point x="537.559570312" y="37.5595703125" type="line"/>
      <point x="537.559570312" y="-50.4404296875" type="line"/>
    </contour>
    <contour>
      <point x="549.559570312" y="-50.4404296875" type="line"/>
      <point x="549.559570312" y="37.5595703125" type="line"/>
      <point x="637.559570312" y="37.5595703125" type="line"/>
      <point x="637.559570312" y="-50.4404296875" type="line"/>
    </contour>
  </outline>
</glyph>
<glyph name="grave" format="2">
  <advance width="300"/>
  <unicode hex="0060"/>
  <outline>
    <contour>
      <point x="99.5595703125" y="649.559570312" type="line"/>
      <point x="99.5595703125" y="737.559570312" type="line"/>
      <point x="187.559570312" y="737.559570312" type="line"/>
      <point x="187.559570312" y="649.559570312" type="line"/>
    </contour>
    <contour>
      <point x="199.559570312" y="549.559570312" type="line"/>
      <point x="199.559570312" y="637.559570312" type="line"/>
      <point x="287.559570312" y="637.559570312" type="line"/>
      <point x="287.559570312" y="549.559570312" type="line"/>
    </contour>
  </outline>
</glyph>
<glyph name="j" format="2">
  <advance width="500"/>
  <unicode hex="006A"/>
  <outline>
    <contour>
      <point x="399.559570312" y="649.559570312" type="line"/>
      <point x="399.559570312" y="737.559570312" type="line"/>
      <point x="487.559570312" y="737.559570312" type="line"/>
      <point x="487.559570312" y="649.559570312" type="line"/>
    </contour>
    <contour>
      <point x="299.559570312" y="449.559570312" type="line"/>
      <point x="299.559570312" y="537.559570312" type="line"/>
      <point x="387.559570312" y="537.559570312" type="line"/>
      <point x="387.559570312" y="449.559570312" type="line"/>
    </contour>
    <contour>
      <point x="399.559570312" y="449.559570312" type="line"/>
      <point x="399.559570312" y="537.559570312" type="line"/>
      <point x="487.559570312" y="537.559570312" type="line"/>
      <point x="487.559570312" y="449.559570312" type="line"/>
    </contour>
    <contour>
      <point x="399.559570312" y="349.559570312" type="line"/>
      <point x="399.559570312" y="437.559570312" type="line"/>
      <point x="487.559570312" y="437.559570312" type="line"/>
      <point x="487.559570312" y="349.559570312" type="line"/>
    </contour>
    <contour>
      <point x="399.559570312" y="249.559570312" type="line"/>
      <point x="399.559570312" y="337.559570312" type="line"/>
      <point x="487.559570312" y="337.559570312" type="line"/>
      <point x="487.559570312" y="249.559570312" type="line"/>
    </contour>
    <contour>
      <point x="399.559570312" y="149.559570312" type="line"/>
      <point x="399.559570312" y="237.559570312" type="line"/>
      <point x="487.559570312" y="237.559570312" type="line"/>
      <point x="487.559570312" y="149.559570312" type="line"/>
    </contour>
    <contour>
      <point x="399.559570312" y="49.5595703125" type="line"/>
      <point x="399.559570312" y="137.559570312" type="line"/>
      <point x="487.559570312" y="137.559570312" type="line"/>
      <point x="487.559570312" y="49.5595703125" type="line"/>
    </contour>
    <contour>
      <point x="99.5595703125" y="-50.4404296875" type="line"/>
      <point x="99.5595703125" y="37.5595703125" type="line"/>
      <point x="187.559570312" y="37.5595703125" type="line"/>
      <point x="187.559570312" y="-50.4404296875" type="line"/>
    </contour>
    <contour>
      <point x="399.559570312" y="-50.4404296875" type="line"/>
      <point x="399.559570312" y="37.5595703125" type="line"/>
      <point x="487.559570312" y="37.5595703125" type="line"/>
      <point x="487.559570312" y="-50.4404296875" type="line"/>
    </contour>
    <contour>
      <point x="199.559570312" y="-150.440429688" type="line"/>
      <point x="199.559570312" y="-62.4404296875" type="line"/>
      <point x="287.559570312" y="-62.4404296875" type="line"/>
      <point x="287.559570312" y="-150.440429688" type="line"/>
    </contour>
    <contour>
      <point x="299.559570312" y="-150.440429688" type="line"/>
      <point x="299.559570312" y="-62.4404296875" type="line"/>
      <point x="387.559570312" y="-62.4404296875" type="line"/>
      <point x="387.559570312" y="-150.440429688" type="line"/>
    </contour>
  </outline>
</glyph>
<glyph name="bar" format="2">
  <advance width="200"/>
  <unicode hex="007C"/>
  <outline>
    <contour>
      <point x="56.0" y="606.0" type="line"/>
      <point x="56.0" y="694.0" type="line"/>
      <point x="144.0" y="694.0" type="line"/>
      <point x="144.0" y="606.0" type="line"/>
    </contour>
    <contour>
      <point x="56.0" y="506.0" type="line"/>
      <point x="56.0" y="594.0" type="line"/>
      <point x="144.0" y="594.0" type="line"/>
      <point x="144.0" y="506.0" type="line"/>
    </contour>
    <contour>
      <point x="56.0" y="406.0" type="line"/>
      <point x="56.0" y="494.0" type="line"/>
      <point x="144.0" y="494.0" type="line"/>
      <point x="144.0" y="406.0" type="line"/>
    </contour>
    <contour>
      <point x="56.0" y="306.0" type="line"/>
      <point x="56.0" y="394.0" type="line"/>
      <point x="144.0" y="394.0" type="line"/>
      <point x="144.0" y="306.0" type="line"/>
    </contour>
    <contour>
      <point x="56.0" y="206.0" type="line"/>
      <point x="56.0" y="294.0" type="line"/>
      <point x="144.0" y="294.0" type="line"/>
      <point x="144.0" y="206.0" type="line"/>
    </contour>
    <contour>
      <point x="56.0" y="106.0" type="line"/>
      <point x="56.0" y="194.0" type="line"/>
      <point x="144.0" y="194.0" type="line"/>
      <point x="144.0" y="106.0" type="line"/>
    </contour>
    <contour>
      <point x="56.0" y="6.0" type="line"/>
      <point x="56.0" y="94.0" type="line"/>
      <point x="144.0" y="94.0" type="line"/>
      <point x="144.0" y="6.0" type="line"/>
    </contour>
  </outline>
</glyph>
<glyph name="exclamdown" format="2">
  <advance width="200"/>
  <unicode hex="00A1"/>
  <outline>
    <contour>
      <point x="56.0" y="406.0" type="line"/>
      <point x="56.0" y="494.0" type="line"/>
      <point x="144.0" y="494.0" type="line"/>
      <point x="144.0" y="406.0" type="line"/>
    </contour>
    <contour>
      <point x="56.0" y="206.0" type="line"/>
      <point x="56.0" y="294.0" type="line"/>
      <point x="144.0" y="294.0" type="line"/>
      <point x="144.0" y="206.0" type="line"/>
    </contour>
    <contour>
      <point x="56.0" y="106.0" type="line"/>
      <point x="56.0" y="194.0" type="line"/>
      <point x="144.0" y="194.0" type="line"/>
      <point x="144.0" y="106.0" type="line"/>
    </contour>
    <contour>
      <point x="56.0" y="6.0" type="line"/>
      <point x="56.0" y="94.0" type="line"/>
      <point x="144.0" y="94.0" type="line"/>
      <point x="144.0" y="6.0" type="line"/>
    </contour>
    <contour>
      <point x="56.0" y="-94.0" type="line"/>
      <point x="56.0" y="-6.0" type="line"/>
      <point x="144.0" y="-6.0" type="line"/>
      <point x="144.0" y="-94.0" type="line"/>
    </contour>
    <contour>
      <point x="56.0" y="-194.0" type="line"/>
      <point x="56.0" y="-106.0" type="line"/>
      <point x="144.0" y="-106.0" type="line"/>
      <point x="144.0" y="-194.0" type="line"/>
    </contour>
  </outline>
</glyph>
<glyph name="brokenbar" format="2">
  <advance width="200"/>
  <unicode hex="00A6"/>
  <outline>
    <contour>
      <point x="57.0" y="607.0" type="line"/>
      <point x="57.0" y="693.0" type="line"/>
      <point x="143.0" y="693.0" type="line"/>
      <point x="143.0" y="607.0" type="line"/>
    </contour>
    <contour>
      <point x="57.0" y="507.0" type="line"/>
      <point x="57.0" y="593.0" type="line"/>
      <point x="143.0" y="593.0" type="line"/>
      <point x="143.0" y="507.0" type="line"/>
    </contour>
    <contour>
      <point x="57.0" y="407.0" type="line"/>
      <point x="57.0" y="493.0" type="line"/>
      <point x="143.0" y="493.0" type="line"/>
      <point x="143.0" y="407.0" type="line"/>
    </contour>
    <contour>
      <point x="57.0" y="207.0" type="line"/>
      <point x="57.0" y="293.0" type="line"/>
      <point x="143.0" y="293.0" type="line"/>
      <point x="143.0" y="207.0" type="line"/>
    </contour>
    <contour>
      <point x="57.0" y="107.0" type="line"/>
      <point x="57.0" y="193.0" type="line"/>
      <point x="143.0" y="193.0" type="line"/>
      <point x="143.0" y="107.0" type="line"/>
    </contour>
    <contour>
      <point x="57.0" y="7.0" type="line"/>
      <point x="57.0" y="93.0" type="line"/>
      <point x="143.0" y="93.0" type="line"/>
      <point x="143.0" y="7.0" type="line"/>
    </contour>
  </outline>
</glyph>
<glyph name="dieresis" format="2">
  <advance width="400"/>
  <unicode hex="00A8"/>
  <outline>
    <contour>
      <point x="57.0" y="607.0" type="line"/>
      <point x="57.0" y="693.0" type="line"/>
      <point x="143.0" y="693.0" type="line"/>
      <point x="143.0" y="607.0" type="line"/>
    </contour>
    <contour>
      <point x="257.0" y="607.0" type="line"/>
      <point x="257.0" y="693.0" type="line"/>
      <point x="343.0" y="693.0" type="line"/>
      <point x="343.0" y="607.0" type="line"/>
    </contour>
  </outline>
</glyph>
<glyph name="acute" format="2">
  <advance width="300"/>
  <unicode hex="00B4"/>
  <outline>
    <contour>
      <point x="156.0" y="606.0" type="line"/>
      <point x="156.0" y="694.0" type="line"/>
      <point x="244.0" y="694.0" type="line"/>
      <point x="244.0" y="606.0" type="line"/>
    </contour>
    <contour>
      <point x="56.0" y="506.0" type="line"/>
      <point x="56.0" y="594.0" type="line"/>
      <point x="144.0" y="594.0" type="line"/>
      <point x="144.0" y="506.0" type="line"/>
    </contour>
  </outline>
</glyph>
<glyph name="periodcentered" format="2">
  <advance width="200"/>
  <unicode hex="00B7"/>
  <outline>
    <contour>
      <point x="99.5595703125" y="349.559570312" type="line"/>
      <point x="99.5595703125" y="437.559570312" type="line"/>
      <point x="187.559570312" y="437.559570312" type="line"/>
      <point x="187.559570312" y="349.559570312" type="line"/>
    </contour>
  </outline>
</glyph>
<glyph name="cedilla" format="2">
  <advance width="300"/>
  <unicode hex="00B8"/>
  <outline>
    <contour>
      <point x="156.0" y="-94.0" type="line"/>
      <point x="156.0" y="-6.0" type="line"/>
      <point x="244.0" y="-6.0" type="line"/>
      <point x="244.0" y="-94.0" type="line"/>
    </contour>
    <contour>
      <point x="56.0" y="-194.0" type="line"/>
      <point x="56.0" y="-106.0" type="line"/>
      <point x="144.0" y="-106.0" type="line"/>
      <point x="144.0" y="-194.0" type="line"/>
    </contour>
    <contour>
      <point x="156.0" y="-194.0" type="line"/>
      <point x="156.0" y="-106.0" type="line"/>
      <point x="244.0" y="-106.0" type="line"/>
      <point x="244.0" y="-194.0" type="line"/>
    </contour>
  </outline>
</glyph>
<glyph name="uni00B9" format="2">
  <advance width="400"/>
  <unicode hex="00B9"/>
  <outline>
    <contour>
      <point x="199.559570312" y="649.559570312" type="line"/>
      <point x="199.559570312" y="737.559570312" type="line"/>
      <point x="287.559570312" y="737.559570312" type="line"/>
      <point x="287.559570312" y="649.559570312" type="line"/>
    </contour>
    <contour>
      <point x="99.5595703125" y="549.559570312" type="line"/>
      <point x="99.5595703125" y="637.559570312" type="line"/>
      <point x="187.559570312" y="637.559570312" type="line"/>
      <point x="187.559570312" y="549.559570312" type="line"/>
    </contour>
    <contour>
      <point x="199.559570312" y="549.559570312" type="line"/>
      <point x="199.559570312" y="637.559570312" type="line"/>
      <point x="287.559570312" y="637.559570312" type="line"/>
      <point x="287.559570312" y="549.559570312" type="line"/>
    </contour>
    <contour>
      <point x="199.559570312" y="449.559570312" type="line"/>
      <point x="199.559570312" y="537.559570312" type="line"/>
      <point x="287.559570312" y="537.559570312" type="line"/>
      <point x="287.559570312" y="449.559570312" type="line"/>
    </contour>
    <contour>
      <point x="199.559570312" y="349.559570312" type="line"/>
      <point x="199.559570312" y="437.559570312" type="line"/>
      <point x="287.559570312" y="437.559570312" type="line"/>
      <point x="287.559570312" y="349.559570312" type="line"/>
    </contour>
    <contour>
      <point x="99.5595703125" y="249.559570312" type="line"/>
      <point x="99.5595703125" y="337.559570312" type="line"/>
      <point x="187.559570312" y="337.559570312" type="line"/>
      <point x="187.559570312" y="249.559570312" type="line"/>
    </contour>
    <contour>
      <point x="199.559570312" y="249.559570312" type="line"/>
      <point x="199.559570312" y="337.559570312" type="line"/>
      <point x="287.559570312" y="337.559570312" type="line"/>
      <point x="287.559570312" y="249.559570312" type="line"/>
    </contour>
    <contour>
      <point x="299.559570312" y="249.559570312" type="line"/>
      <point x="299.559570312" y="337.559570312" type="line"/>
      <point x="387.559570312" y="337.559570312" type="line"/>
      <point x="387.559570312" y="249.559570312" type="line"/>
    </contour>
  </outline>
</glyph>
<glyph name="circumflex" format="2">
  <advance width="400"/>
  <unicode hex="02C6"/>
  <outline>
    <contour>
      <point x="199.559570312" y="749.559570312" type="line"/>
      <point x="199.559570312" y="837.559570312" type="line"/>
      <point x="287.559570312" y="837.559570312" type="line"/>
      <point x="287.559570312" y="749.559570312" type="line"/>
    </contour>
    <contour>
      <point x="99.5595703125" y="649.559570312" type="line"/>
      <point x="99.5595703125" y="737.559570312" type="line"/>
      <point x="187.559570312" y="737.559570312" type="line"/>
      <point x="187.559570312" y="649.559570312" type="line"/>
    </contour>
    <contour>
      <point x="299.559570312" y="649.559570312" type="line"/>
      <point x="299.559570312" y="737.559570312" type="line"/>
      <point x="387.559570312" y="737.559570312" type="line"/>
      <point x="387.559570312" y="649.559570312" type="line"/>
    </contour>
  </outline>
</glyph>
<glyph name="uni02C8" format="2">
  <advance width="200"/>
  <unicode hex="02C8"/>
  <outline>
    <contour>
      <point x="57.0" y="607.0" type="line"/>
      <point x="57.0" y="693.0" type="line"/>
      <point x="143.0" y="693.0" type="line"/>
      <point x="143.0" y="607.0" type="line"/>
    </contour>
    <contour>
      <point x="57.0" y="507.0" type="line"/>
      <point x="57.0" y="593.0" type="line"/>
      <point x="143.0" y="593.0" type="line"/>
      <point x="143.0" y="507.0" type="line"/>
    </contour>
  </outline>
</glyph>
<glyph name="breve" format="2">
  <advance width="600"/>
  <unicode hex="02D8"/>
  <outline>
    <contour>
      <point x="99.5595703125" y="749.559570312" type="line"/>
      <point x="99.5595703125" y="837.559570312" type="line"/>
      <point x="187.559570312" y="837.559570312" type="line"/>
      <point x="187.559570312" y="749.559570312" type="line"/>
    </contour>
    <contour>
      <point x="499.559570312" y="749.559570312" type="line"/>
      <point x="499.559570312" y="837.559570312" type="line"/>
      <point x="587.559570312" y="837.559570312" type="line"/>
      <point x="587.559570312" y="749.559570312" type="line"/>
    </contour>
    <contour>
      <point x="199.559570312" y="649.559570312" type="line"/>
      <point x="199.559570312" y="737.559570312" type="line"/>
      <point x="287.559570312" y="737.559570312" type="line"/>
      <point x="287.559570312" y="649.559570312" type="line"/>
    </contour>
    <contour>
      <point x="299.559570312" y="649.559570312" type="line"/>
      <point x="299.559570312" y="737.559570312" type="line"/>
      <point x="387.559570312" y="737.559570312" type="line"/>
      <point x="387.559570312" y="649.559570312" type="line"/>
    </contour>
    <contour>
      <point x="399.559570312" y="649.559570312" type="line"/>
      <point x="399.559570312" y="737.559570312" type="line"/>
      <point x="487.559570312" y="737.559570312" type="line"/>
      <point x="487.559570312" y="649.559570312" type="line"/>
    </contour>
  </outline>
</glyph>
<glyph name="dotaccent" format="2">
  <advance width="200"/>
  <unicode hex="02D9"/>
  <outline>
    <contour>
      <point x="99.5595703125" y="649.559570312" type="line"/>
      <point x="99.5595703125" y="737.559570312" type="line"/>
      <point x="187.559570312" y="737.559570312" type="line"/>
      <point x="187.559570312" y="649.559570312" type="line"/>
    </contour>
  </outline>
</glyph>
<glyph name="ring" format="2">
  <advance width="400"/>
  <unicode hex="02DA"/>
  <outline>
    <contour>
      <point x="199.559570312" y="749.559570312" type="line"/>
      <point x="199.559570312" y="837.559570312" type="line"/>
      <point x="287.559570312" y="837.559570312" type="line"/>
      <point x="287.559570312" y="749.559570312" type="line"/>
    </contour>
    <contour>
      <point x="99.5595703125" y="649.559570312" type="line"/>
      <point x="99.5595703125" y="737.559570312" type="line"/>
      <point x="187.559570312" y="737.559570312" type="line"/>
      <point x="187.559570312" y="649.559570312" type="line"/>
    </contour>
    <contour>
      <point x="299.559570312" y="649.559570312" type="line"/>
      <point x="299.559570312" y="737.559570312" type="line"/>
      <point x="387.559570312" y="737.559570312" type="line"/>
      <point x="387.559570312" y="649.559570312" type="line"/>
    </contour>
    <contour>
      <point x="199.559570312" y="549.559570312" type="line"/>
      <point x="199.559570312" y="637.559570312" type="line"/>
      <point x="287.559570312" y="637.559570312" type="line"/>
      <point x="287.559570312" y="549.559570312" type="line"/>
    </contour>
  </outline>
</glyph>
<glyph name="ogonek" format="2">
  <advance width="300"/>
  <unicode hex="02DB"/>
  <outline>
    <contour>
      <point x="56.0" y="-94.0" type="line"/>
      <point x="56.0" y="-6.0" type="line"/>
      <point x="144.0" y="-6.0" type="line"/>
      <point x="144.0" y="-94.0" type="line"/>
    </contour>
    <contour>
      <point x="56.0" y="-194.0" type="line"/>
      <point x="56.0" y="-106.0" type="line"/>
      <point x="144.0" y="-106.0" type="line"/>
      <point x="144.0" y="-194.0" type="line"/>
    </contour>
    <contour>
      <point x="156.0" y="-194.0" type="line"/>
      <point x="156.0" y="-106.0" type="line"/>
      <point x="244.0" y="-106.0" type="line"/>
      <point x="244.0" y="-194.0" type="line"/>
    </contour>
  </outline>
</glyph>
<glyph name="uni0307" format="2">
  <unicode hex="0307"/>
  <outline>
    <contour>
      <point x="-0.4404296875" y="649.559570312" type="line"/>
      <point x="-0.4404296875" y="737.559570312" type="line"/>
      <point x="87.5595703125" y="737.559570312" type="line"/>
      <point x="87.5595703125" y="649.559570312" type="line"/>
    </contour>
  </outline>
</glyph>
<glyph name="hookabovecomb" format="2">
  <unicode hex="0309"/>
  <outline>
    <contour>
      <point x="-43.0" y="607.0" type="line"/>
      <point x="-43.0" y="693.0" type="line"/>
      <point x="43.0" y="693.0" type="line"/>
      <point x="43.0" y="607.0" type="line"/>
    </contour>
    <contour>
      <point x="-43.0" y="707.0" type="line"/>
      <point x="-43.0" y="793.0" type="line"/>
      <point x="43.0" y="793.0" type="line"/>
      <point x="43.0" y="707.0" type="line"/>
    </contour>
    <contour>
      <point x="-143.0" y="707.0" type="line"/>
      <point x="-143.0" y="793.0" type="line"/>
      <point x="-57.0" y="793.0" type="line"/>
      <point x="-57.0" y="707.0" type="line"/>
    </contour>
  </outline>
</glyph>
<glyph name="dieresistonos" format="2">
  <advance width="600"/>
  <unicode hex="0385"/>
  <outline>
    <contour>
      <point x="257.0" y="707.0" type="line"/>
      <point x="257.0" y="793.0" type="line"/>
      <point x="343.0" y="793.0" type="line"/>
      <point x="343.0" y="707.0" type="line"/>
    </contour>
    <contour>
      <point x="57.0" y="607.0" type="line"/>
      <point x="57.0" y="693.0" type="line"/>
      <point x="143.0" y="693.0" type="line"/>
      <point x="143.0" y="607.0" type="line"/>
    </contour>
    <contour>
      <point x="257.0" y="607.0" type="line"/>
      <point x="257.0" y="693.0" type="line"/>
      <point x="343.0" y="693.0" type="line"/>
      <point x="343.0" y="607.0" type="line"/>
    </contour>
    <contour>
      <point x="457.0" y="607.0" type="line"/>
      <point x="457.0" y="693.0" type="line"/>
      <point x="543.0" y="693.0" type="line"/>
      <point x="543.0" y="607.0" type="line"/>
    </contour>
  </outline>
</glyph>
<glyph name="phi" format="2">
  <advance width="600"/>
  <unicode hex="03C6"/>
  <outline>
    <contour>
      <point x="57.0" y="407.0" type="line"/>
      <point x="57.0" y="493.0" type="line"/>
      <point x="143.0" y="493.0" type="line"/>
      <point x="143.0" y="407.0" type="line"/>
    </contour>
    <contour>
      <point x="357.0" y="407.0" type="line"/>
      <point x="357.0" y="493.0" type="line"/>
      <point x="443.0" y="493.0" type="line"/>
      <point x="443.0" y="407.0" type="line"/>
    </contour>
    <contour>
      <point x="57.0" y="307.0" type="line"/>
      <point x="57.0" y="393.0" type="line"/>
      <point x="143.0" y="393.0" type="line"/>
      <point x="143.0" y="307.0" type="line"/>
    </contour>
    <contour>
      <point x="257.0" y="307.0" type="line"/>
      <point x="257.0" y="393.0" type="line"/>
      <point x="343.0" y="393.0" type="line"/>
      <point x="343.0" y="307.0" type="line"/>
    </contour>
    <contour>
      <point x="457.0" y="307.0" type="line"/>
      <point x="457.0" y="393.0" type="line"/>
      <point x="543.0" y="393.0" type="line"/>
      <point x="543.0" y="307.0" type="line"/>
    </contour>
    <contour>
      <point x="57.0" y="207.0" type="line"/>
      <point x="57.0" y="293.0" type="line"/>
      <point x="143.0" y="293.0" type="line"/>
      <point x="143.0" y="207.0" type="line"/>
    </contour>
    <contour>
      <point x="257.0" y="207.0" type="line"/>
      <point x="257.0" y="293.0" type="line"/>
      <point x="343.0" y="293.0" type="line"/>
      <point x="343.0" y="207.0" type="line"/>
    </contour>
    <contour>
      <point x="457.0" y="207.0" type="line"/>
      <point x="457.0" y="293.0" type="line"/>
      <point x="543.0" y="293.0" type="line"/>
      <point x="543.0" y="207.0" type="line"/>
    </contour>
    <contour>
      <point x="57.0" y="107.0" type="line"/>
      <point x="57.0" y="193.0" type="line"/>
      <point x="143.0" y="193.0" type="line"/>
      <point x="143.0" y="107.0" type="line"/>
    </contour>
    <contour>
      <point x="257.0" y="107.0" type="line"/>
      <point x="257.0" y="193.0" type="line"/>
      <point x="343.0" y="193.0" type="line"/>
      <point x="343.0" y="107.0" type="line"/>
    </contour>
    <contour>
      <point x="457.0" y="107.0" type="line"/>
      <point x="457.0" y="193.0" type="line"/>
      <point x="543.0" y="193.0" type="line"/>
      <point x="543.0" y="107.0" type="line"/>
    </contour>
    <contour>
      <point x="157.0" y="7.0" type="line"/>
      <point x="157.0" y="93.0" type="line"/>
      <point x="243.0" y="93.0" type="line"/>
      <point x="243.0" y="7.0" type="line"/>
    </contour>
    <contour>
      <point x="257.0" y="7.0" type="line"/>
      <point x="257.0" y="93.0" type="line"/>
      <point x="343.0" y="93.0" type="line"/>
      <point x="343.0" y="7.0" type="line"/>
    </contour>
    <contour>
      <point x="357.0" y="7.0" type="line"/>
      <point x="357.0" y="93.0" type="line"/>
      <point x="443.0" y="93.0" type="line"/>
      <point x="443.0" y="7.0" type="line"/>
    </contour>
    <contour>
      <point x="257.0" y="-93.0" type="line"/>
      <point x="257.0" y="-7.0" type="line"/>
      <point x="343.0" y="-7.0" type="line"/>
      <point x="343.0" y="-93.0" type="line"/>
    </contour>
    <contour>
      <point x="257.0" y="-193.0" type="line"/>
      <point x="257.0" y="-107.0" type="line"/>
      <point x="343.0" y="-107.0" type="line"/>
      <point x="343.0" y="-193.0" type="line"/>
    </contour>
  </outline>
</glyph>
<glyph name="shcha-cy" format="2">
  <advance width="700"/>
  <unicode hex="0449"/>
  <outline>
    <contour>
      <point x="57.0" y="407.0" type="line"/>
      <point x="57.0" y="493.0" type="line"/>
      <point x="143.0" y="493.0" type="line"/>
      <point x="143.0" y="407.0" type="line"/>
    </contour>
    <contour>
      <point x="257.0" y="407.0" type="line"/>
      <point x="257.0" y="493.0" type="line"/>
      <point x="343.0" y="493.0" type="line"/>
      <point x="343.0" y="407.0" type="line"/>
    </contour>
    <contour>
      <point x="457.0" y="407.0" type="line"/>
      <point x="457.0" y="493.0" type="line"/>
      <point x="543.0" y="493.0" type="line"/>
      <point x="543.0" y="407.0" type="line"/>
    </contour>
    <contour>
      <point x="57.0" y="307.0" type="line"/>
      <point x="57.0" y="393.0" type="line"/>
      <point x="143.0" y="393.0" type="line"/>
      <point x="143.0" y="307.0" type="line"/>
    </contour>
    <contour>
      <point x="257.0" y="307.0" type="line"/>
      <point x="257.0" y="393.0" type="line"/>
      <point x="343.0" y="393.0" type="line"/>
      <point x="343.0" y="307.0" type="line"/>
    </contour>
    <contour>
      <point x="457.0" y="307.0" type="line"/>
      <point x="457.0" y="393.0" type="line"/>
      <point x="543.0" y="393.0" type="line"/>
      <point x="543.0" y="307.0" type="line"/>
    </contour>
    <contour>
      <point x="57.0" y="207.0" type="line"/>
      <point x="57.0" y="293.0" type="line"/>
      <point x="143.0" y="293.0" type="line"/>
      <point x="143.0" y="207.0" type="line"/>
    </contour>
    <contour>
      <point x="257.0" y="207.0" type="line"/>
      <point x="257.0" y="293.0" type="line"/>
      <point x="343.0" y="293.0" type="line"/>
      <point x="343.0" y="207.0" type="line"/>
    </contour>
    <contour>
      <point x="457.0" y="207.0" type="line"/>
      <point x="457.0" y="293.0" type="line"/>
      <point x="543.0" y="293.0" type="line"/>
      <point x="543.0" y="207.0" type="line"/>
    </contour>
    <contour>
      <point x="57.0" y="107.0" type="line"/>
      <point x="57.0" y="193.0" type="line"/>
      <point x="143.0" y="193.0" type="line"/>
      <point x="143.0" y="107.0" type="line"/>
    </contour>
    <contour>
      <point x="257.0" y="107.0" type="line"/>
      <point x="257.0" y="193.0" type="line"/>
      <point x="343.0" y="193.0" type="line"/>
      <point x="343.0" y="107.0" type="line"/>
    </contour>
    <contour>
      <point x="457.0" y="107.0" type="line"/>
      <point x="457.0" y="193.0" type="line"/>
      <point x="543.0" y="193.0" type="line"/>
      <point x="543.0" y="107.0" type="line"/>
    </contour>
    <contour>
      <point x="57.0" y="7.0" type="line"/>
      <point x="57.0" y="93.0" type="line"/>
      <point x="143.0" y="93.0" type="line"/>
      <point x="143.0" y="7.0" type="line"/>
    </contour>
    <contour>
      <point x="157.0" y="7.0" type="line"/>
      <point x="157.0" y="93.0" type="line"/>
      <point x="243.0" y="93.0" type="line"/>
      <point x="243.0" y="7.0" type="line"/>
    </contour>
    <contour>
      <point x="257.0" y="7.0" type="line"/>
      <point x="257.0" y="93.0" type="line"/>
      <point x="343.0" y="93.0" type="line"/>
      <point x="343.0" y="7.0" type="line"/>
    </contour>
    <contour>
      <point x="357.0" y="7.0" type="line"/>
      <point x="357.0" y="93.0" type="line"/>
      <point x="443.0" y="93.0" type="line"/>
      <point x="443.0" y="7.0" type="line"/>
    </contour>
    <contour>
      <point x="457.0" y="7.0" type="line"/>
      <point x="457.0" y="93.0" type="line"/>
      <point x="543.0" y="93.0" type="line"/>
      <point x="543.0" y="7.0" type="line"/>
    </contour>
    <contour>
      <point x="557.0" y="7.0" type="line"/>
      <point x="557.0" y="93.0" type="line"/>
      <point x="643.0" y="93.0" type="line"/>
      <point x="643.0" y="7.0" type="line"/>
    </contour>
    <contour>
      <point x="557.0" y="-93.0" type="line"/>
      <point x="557.0" y="-7.0" type="line"/>
      <point x="643.0" y="-7.0" type="line"/>
      <point x="643.0" y="-93.0" type="line"/>
    </contour>
  </outline>
</glyph>
<glyph name="exclam-ar" format="2">
  <advance width="550"/>
  <unicode hex="055C"/>
  <outline>
    <contour>
      <point x="407.0" y="607.0" type="line"/>
      <point x="407.0" y="693.0" type="line"/>
      <point x="493.0" y="693.0" type="line"/>
      <point x="493.0" y="607.0" type="line"/>
    </contour>
    <contour>
      <point x="207.0" y="507.0" type="line"/>
      <point x="207.0" y="593.0" type="line"/>
      <point x="293.0" y="593.0" type="line"/>
      <point x="293.0" y="507.0" type="line"/>
    </contour>
    <contour>
      <point x="307.0" y="507.0" type="line"/>
      <point x="307.0" y="593.0" type="line"/>
      <point x="393.0" y="593.0" type="line"/>
      <point x="393.0" y="507.0" type="line"/>
    </contour>
    <contour>
      <point x="107.0" y="407.0" type="line"/>
      <point x="107.0" y="493.0" type="line"/>
      <point x="193.0" y="493.0" type="line"/>
      <point x="193.0" y="407.0" type="line"/>
    </contour>
  </outline>
</glyph>
<glyph name="liwn-ar" format="2">
  <advance width="200"/>
  <unicode hex="056C"/>
  <outline>
    <contour>
      <point x="57.0" y="407.0" type="line"/>
      <point x="57.0" y="493.0" type="line"/>
      <point x="143.0" y="493.0" type="line"/>
      <point x="143.0" y="407.0" type="line"/>
    </contour>
    <contour>
      <point x="57.0" y="307.0" type="line"/>
      <point x="57.0" y="393.0" type="line"/>
      <point x="143.0" y="393.0" type="line"/>
      <point x="143.0" y="307.0" type="line"/>
    </contour>
    <contour>
      <point x="57.0" y="207.0" type="line"/>
      <point x="57.0" y="293.0" type="line"/>
      <point x="143.0" y="293.0" type="line"/>
      <point x="143.0" y="207.0" type="line"/>
    </contour>
    <contour>
      <point x="57.0" y="107.0" type="line"/>
      <point x="57.0" y="193.0" type="line"/>
      <point x="143.0" y="193.0" type="line"/>
      <point x="143.0" y="107.0" type="line"/>
    </contour>
    <contour>
      <point x="57.0" y="7.0" type="line"/>
      <point x="57.0" y="93.0" type="line"/>
      <point x="143.0" y="93.0" type="line"/>
      <point x="143.0" y="7.0" type="line"/>
    </contour>
    <contour>
      <point x="57.0" y="-93.0" type="line"/>
      <point x="57.0" y="-7.0" type="line"/>
      <point x="143.0" y="-7.0" type="line"/>
      <point x="143.0" y="-93.0" type="line"/>
    </contour>
    <contour>
      <point x="57.0" y="-193.0" type="line"/>
      <point x="57.0" y="-107.0" type="line"/>
      <point x="143.0" y="-107.0" type="line"/>
      <point x="143.0" y="-193.0" type="line"/>
    </contour>
    <contour>
      <point x="157.0" y="-193.0" type="line"/>
      <point x="157.0" y="-107.0" type="line"/>
      <point x="243.0" y="-107.0" type="line"/>
      <point x="243.0" y="-193.0" type="line"/>
    </contour>
  </outline>
</glyph>
<glyph name="uni05C3" format="2">
  <advance width="200"/>
  <unicode hex="05C3"/>
  <outline>
    <contour>
      <point x="57.0" y="507.0" type="line"/>
      <point x="57.0" y="593.0" type="line"/>
      <point x="143.0" y="593.0" type="line"/>
      <point x="143.0" y="507.0" type="line"/>
    </contour>
    <contour>
      <point x="57.0" y="7.0" type="line"/>
      <point x="57.0" y="93.0" type="line"/>
      <point x="143.0" y="93.0" type="line"/>
      <point x="143.0" y="7.0" type="line"/>
    </contour>
  </outline>
</glyph>
<glyph name="emdash" format="2">
  <advance width="600"/>
  <unicode hex="2014"/>
  <outline>
    <contour>
      <point x="49.5595703125" y="349.559570312" type="line"/>
      <point x="49.5595703125" y="437.559570312" type="line"/>
      <point x="137.559570312" y="437.559570312" type="line"/>
      <point x="137.559570312" y="349.559570312" type="line"/>
    </contour>
    <contour>
      <point x="149.559570312" y="349.559570312" type="line"/>
      <point x="149.559570312" y="437.559570312" type="line"/>
      <point x="237.559570312" y="437.559570312" type="line"/>
      <point x="237.559570312" y="349.559570312" type="line"/>
    </contour>
    <contour>
      <point x="249.559570312" y="349.559570312" type="line"/>
      <point x="249.559570312" y="437.559570312" type="line"/>
      <point x="337.559570312" y="437.559570312" type="line"/>
      <point x="337.559570312" y="349.559570312" type="line"/>
    </contour>
    <contour>
      <point x="349.559570312" y="349.559570312" type="line"/>
      <point x="349.559570312" y="437.559570312" type="line"/>
      <point x="437.559570312" y="437.559570312" type="line"/>
      <point x="437.559570312" y="349.559570312" type="line"/>
    </contour>
    <contour>
      <point x="449.559570312" y="349.559570312" type="line"/>
      <point x="449.559570312" y="437.559570312" type="line"/>
      <point x="537.559570312" y="437.559570312" type="line"/>
      <point x="537.559570312" y="349.559570312" type="line"/>
    </contour>
    <contour>
      <point x="549.559570312" y="349.559570312" type="line"/>
      <point x="549.559570312" y="437.559570312" type="line"/>
      <point x="637.559570312" y="437.559570312" type="line"/>
      <point x="637.559570312" y="349.559570312" type="line"/>
    </contour>
  </outline>
</glyph>
<glyph name="quoteleft" format="2">
  <advance width="300"/>
  <unicode hex="2018"/>
  <outline>
    <contour>
      <point x="157.0" y="607.0" type="line"/>
      <point x="157.0" y="693.0" type="line"/>
      <point x="243.0" y="693.0" type="line"/>
      <point x="243.0" y="607.0" type="line"/>
    </contour>
    <contour>
      <point x="57.0" y="507.0" type="line"/>
      <point x="57.0" y="593.0" type="line"/>
      <point x="143.0" y="593.0" type="line"/>
      <point x="143.0" y="507.0" type="line"/>
    </contour>
    <contour>
      <point x="57.0" y="407.0" type="line"/>
      <point x="57.0" y="493.0" type="line"/>
      <point x="143.0" y="493.0" type="line"/>
      <point x="143.0" y="407.0" type="line"/>
    </contour>
  </outline>
</glyph>
<glyph name="bullet" format="2">
  <advance width="300"/>
  <unicode hex="2022"/>
  <outline>
    <contour>
      <point x="57.0" y="407.0" type="line"/>
      <point x="57.0" y="493.0" type="line"/>
      <point x="143.0" y="493.0" type="line"/>
      <point x="143.0" y="407.0" type="line"/>
    </contour>
    <contour>
      <point x="157.0" y="407.0" type="line"/>
      <point x="157.0" y="493.0" type="line"/>
      <point x="243.0" y="493.0" type="line"/>
      <point x="243.0" y="407.0" type="line"/>
    </contour>
    <contour>
      <point x="57.0" y="307.0" type="line"/>
      <point x="57.0" y="393.0" type="line"/>
      <point x="143.0" y="393.0" type="line"/>
      <point x="143.0" y="307.0" type="line"/>
    </contour>
    <contour>
      <point x="157.0" y="307.0" type="line"/>
      <point x="157.0" y="393.0" type="line"/>
      <point x="243.0" y="393.0" type="line"/>
      <point x="243.0" y="307.0" type="line"/>
    </contour>
  </outline>
</glyph>
<glyph name="ellipsis" format="2">
  <advance width="600"/>
  <unicode hex="2026"/>
  <outline>
    <contour>
      <point x="99.5595703125" y="49.5595703125" type="line"/>
      <point x="99.5595703125" y="137.559570312" type="line"/>
      <point x="187.559570312" y="137.559570312" type="line"/>
      <point x="187.559570312" y="49.5595703125" type="line"/>
    </contour>
    <contour>
      <point x="499.559570312" y="49.5595703125" type="line"/>
      <point x="499.559570312" y="137.559570312" type="line"/>
      <point x="587.559570312" y="137.559570312" type="line"/>
      <point x="587.559570312" y="49.5595703125" type="line"/>
    </contour>
    <contour>
      <point x="299.559570312" y="49.5595703125" type="line"/>
      <point x="299.559570312" y="137.559570312" type="line"/>
      <point x="387.559570312" y="137.559570312" type="line"/>
      <point x="387.559570312" y="49.5595703125" type="line"/>
    </contour>
  </outline>
</glyph>
<glyph name="perthousand" format="2">
  <advance width="900"/>
  <unicode hex="2030"/>
  <outline>
    <contour>
      <point x="757.0" y="7.0" type="line"/>
      <point x="757.0" y="93.0" type="line"/>
      <point x="843.0" y="93.0" type="line"/>
      <point x="843.0" y="7.0" type="line"/>
    </contour>
    <contour>
      <point x="657.0" y="7.0" type="line"/>
      <point x="657.0" y="93.0" type="line"/>
      <point x="743.0" y="93.0" type="line"/>
      <point x="743.0" y="7.0" type="line"/>
    </contour>
    <contour>
      <point x="757.0" y="107.0" type="line"/>
      <point x="757.0" y="193.0" type="line"/>
      <point x="843.0" y="193.0" type="line"/>
      <point x="843.0" y="107.0" type="line"/>
    </contour>
    <contour>
      <point x="657.0" y="107.0" type="line"/>
      <point x="657.0" y="193.0" type="line"/>
      <point x="743.0" y="193.0" type="line"/>
      <point x="743.0" y="107.0" type="line"/>
    </contour>
    <component base="percent"/>
  </outline>
</glyph>
<glyph name="guilsinglright" format="2">
  <advance width="300"/>
  <unicode hex="203A"/>
  <outline>
    <contour>
      <point x="56.0" y="406.0" type="line"/>
      <point x="56.0" y="494.0" type="line"/>
      <point x="144.0" y="494.0" type="line"/>
      <point x="144.0" y="406.0" type="line"/>
    </contour>
    <contour>
      <point x="156.0" y="306.0" type="line"/>
      <point x="156.0" y="394.0" type="line"/>
      <point x="244.0" y="394.0" type="line"/>
      <point x="244.0" y="306.0" type="line"/>
    </contour>
    <contour>
      <point x="56.0" y="206.0" type="line"/>
      <point x="56.0" y="294.0" type="line"/>
      <point x="144.0" y="294.0" type="line"/>
      <point x="144.0" y="206.0" type="line"/>
    </contour>
  </outline>
</glyph>
<glyph name="uni205A" format="2">
  <advance width="200"/>
  <unicode hex="205A"/>
  <outline>
    <contour>
      <point x="57.0" y="607.0" type="line"/>
      <point x="57.0" y="693.0" type="line"/>
      <point x="143.0" y="693.0" type="line"/>
      <point x="143.0" y="607.0" type="line"/>
    </contour>
    <contour>
      <point x="57.0" y="7.0" type="line"/>
      <point x="57.0" y="93.0" type="line"/>
      <point x="143.0" y="93.0" type="line"/>
      <point x="143.0" y="7.0" type="line"/>
    </contour>
  </outline>
</glyph>
<glyph name="uni2077" format="2">
  <advance width="400"/>
  <unicode hex="2077"/>
  <outline>
    <contour>
      <point x="57.0" y="607.0" type="line"/>
      <point x="57.0" y="693.0" type="line"/>
      <point x="143.0" y="693.0" type="line"/>
      <point x="143.0" y="607.0" type="line"/>
    </contour>
    <contour>
      <point x="157.0" y="607.0" type="line"/>
      <point x="157.0" y="693.0" type="line"/>
      <point x="243.0" y="693.0" type="line"/>
      <point x="243.0" y="607.0" type="line"/>
    </contour>
    <contour>
      <point x="257.0" y="607.0" type="line"/>
      <point x="257.0" y="693.0" type="line"/>
      <point x="343.0" y="693.0" type="line"/>
      <point x="343.0" y="607.0" type="line"/>
    </contour>
    <contour>
      <point x="257.0" y="507.0" type="line"/>
      <point x="257.0" y="593.0" type="line"/>
      <point x="343.0" y="593.0" type="line"/>
      <point x="343.0" y="507.0" type="line"/>
    </contour>
    <contour>
      <point x="157.0" y="407.0" type="line"/>
      <point x="157.0" y="493.0" type="line"/>
      <point x="243.0" y="493.0" type="line"/>
      <point x="243.0" y="407.0" type="line"/>
    </contour>
    <contour>
      <point x="57.0" y="307.0" type="line"/>
      <point x="57.0" y="393.0" type="line"/>
      <point x="143.0" y="393.0" type="line"/>
      <point x="143.0" y="307.0" type="line"/>
    </contour>
    <contour>
      <point x="57.0" y="207.0" type="line"/>
      <point x="57.0" y="293.0" type="line"/>
      <point x="143.0" y="293.0" type="line"/>
      <point x="143.0" y="207.0" type="line"/>
    </contour>
  </outline>
</glyph>
<glyph name="minus" format="2">
  <advance width="600"/>
  <unicode hex="2212"/>
  <outline>
    <contour>
      <point x="99.5595703125" y="349.559570312" type="line"/>
      <point x="99.5595703125" y="437.559570312" type="line"/>
      <point x="187.559570312" y="437.559570312" type="line"/>
      <point x="187.559570312" y="349.559570312" type="line"/>
    </contour>
    <contour>
      <point x="199.559570312" y="349.559570312" type="line"/>
      <point x="199.559570312" y="437.559570312" type="line"/>
      <point x="287.559570312" y="437.559570312" type="line"/>
      <point x="287.559570312" y="349.559570312" type="line"/>
    </contour>
    <contour>
      <point x="299.559570312" y="349.559570312" type="line"/>
      <point x="299.559570312" y="437.559570312" type="line"/>
      <point x="387.559570312" y="437.559570312" type="line"/>
      <point x="387.559570312" y="349.559570312" type="line"/>
    </contour>
    <contour>
      <point x="399.559570312" y="349.559570312" type="line"/>
      <point x="399.559570312" y="437.559570312" type="line"/>
      <point x="487.559570312" y="437.559570312" type="line"/>
      <point x="487.559570312" y="349.559570312" type="line"/>
    </contour>
    <contour>
      <point x="499.559570312" y="349.559570312" type="line"/>
      <point x="499.559570312" y="437.559570312" type="line"/>
      <point x="587.559570312" y="437.559570312" type="line"/>
      <point x="587.559570312" y="349.559570312" type="line"/>
    </contour>
  </outline>
</glyph>
<glyph name="uni2219" format="2">
  <advance width="200"/>
  <unicode hex="2219"/>
  <outline>
    <contour>
      <point x="99.5595703125" y="349.559570312" type="line"/>
      <point x="99.5595703125" y="437.559570312" type="line"/>
      <point x="187.559570312" y="437.559570312" type="line"/>
      <point x="187.559570312" y="349.559570312" type="line"/>
    </contour>
  </outline>
</glyph>
<glyph name="blackSmallSquare" format="2">
  <advance width="400"/>
  <unicode hex="25AA"/>
  <outline>
    <contour>
      <point x="57.0" y="407.0" type="line"/>
      <point x="57.0" y="493.0" type="line"/>
      <point x="143.0" y="493.0" type="line"/>
      <point x="143.0" y="407.0" type="line"/>
    </contour>
    <contour>
      <point x="157.0" y="407.0" type="line"/>
      <point x="157.0" y="493.0" type="line"/>
      <point x="243.0" y="493.0" type="line"/>
      <point x="243.0" y="407.0" type="line"/>
    </contour>
    <contour>
      <point x="257.0" y="407.0" type="line"/>
      <point x="257.0" y="493.0" type="line"/>
      <point x="343.0" y="493.0" type="line"/>
      <point x="343.0" y="407.0" type="line"/>
    </contour>
    <contour>
      <point x="57.0" y="307.0" type="line"/>
      <point x="57.0" y="393.0" type="line"/>
      <point x="143.0" y="393.0" type="line"/>
      <point x="143.0" y="307.0" type="line"/>
    </contour>
    <contour>
      <point x="157.0" y="307.0" type="line"/>
      <point x="157.0" y="393.0" type="line"/>
      <point x="243.0" y="393.0" type="line"/>
      <point x="243.0" y="307.0" type="line"/>
    </contour>
    <contour>
      <point x="257.0" y="307.0" type="line"/>
      <point x="257.0" y="393.0" type="line"/>
      <point x="343.0" y="393.0" type="line"/>
      <point x="343.0" y="307.0" type="line"/>
    </contour>
    <contour>
      <point x="57.0" y="207.0" type="line"/>
      <point x="57.0" y="293.0" type="line"/>
      <point x="143.0" y="293.0" type="line"/>
      <point x="143.0" y="207.0" type="line"/>
    </contour>
    <contour>
      <point x="157.0" y="207.0" type="line"/>
      <point x="157.0" y="293.0" type="line"/>
      <point x="243.0" y="293.0" type="line"/>
      <point x="243.0" y="207.0" type="line"/>
    </contour>
    <contour>
      <point x="257.0" y="207.0" type="line"/>
      <point x="257.0" y="293.0" type="line"/>
      <point x="343.0" y="293.0" type="line"/>
      <point x="343.0" y="207.0" type="line"/>
    </contour>
  </outline>
</glyph>
<glyph name="uni2D67" format="2">
  <advance width="600"/>
  <unicode hex="2D67"/>
  <outline>
    <contour>
      <point x="57.0" y="307.0" type="line"/>
      <point x="57.0" y="393.0" type="line"/>
      <point x="143.0" y="393.0" type="line"/>
      <point x="143.0" y="307.0" type="line"/>
    </contour>
    <contour>
      <point x="157.0" y="307.0" type="line"/>
      <point x="157.0" y="393.0" type="line"/>
      <point x="243.0" y="393.0" type="line"/>
      <point x="243.0" y="307.0" type="line"/>
    </contour>
    <contour>
      <point x="357.0" y="307.0" type="line"/>
      <point x="357.0" y="393.0" type="line"/>
      <point x="443.0" y="393.0" type="line"/>
      <point x="443.0" y="307.0" type="line"/>
    </contour>
    <contour>
      <point x="457.0" y="307.0" type="line"/>
      <point x="457.0" y="393.0" type="line"/>
      <point x="543.0" y="393.0" type="line"/>
      <point x="543.0" y="307.0" type="line"/>
    </contour>
  </outline>
</glyph>
<glyph name="Saltillo" format="2">
  <advance width="200"/>
  <unicode hex="A78B"/>
  <outline>
    <contour>
      <point x="57.0" y="607.0" type="line"/>
      <point x="57.0" y="693.0" type="line"/>
      <point x="143.0" y="693.0" type="line"/>
      <point x="143.0" y="607.0" type="line"/>
    </contour>
    <contour>
      <point x="57.0" y="507.0" type="line"/>
      <point x="57.0" y="593.0" type="line"/>
      <point x="143.0" y="593.0" type="line"/>
      <point x="143.0" y="507.0" type="line"/>
    </contour>
    <contour>
      <point x="57.0" y="407.0" type="line"/>
      <point x="57.0" y="493.0" type="line"/>
      <point x="143.0" y="493.0" type="line"/>
      <point x="143.0" y="407.0" type="line"/>
    </contour>
    <contour>
      <point x="57.0" y="307.0" type="line"/>
      <point x="57.0" y="393.0" type="line"/>
      <point x="143.0" y="393.0" type="line"/>
      <point x="143.0" y="307.0" type="line"/>
    </contour>
  </outline>
</glyph>
<glyph name="f_f_i" format="2">
  <advance width="900"/>
  <unicode hex="FB03"/>
  <outline>
    <contour>
      <point x="257.0" y="607.0" type="line"/>
      <point x="257.0" y="693.0" type="line"/>
      <point x="343.0" y="693.0" type="line"/>
      <point x="343.0" y="607.0" type="line"/>
    </contour>
    <contour>
      <point x="357.0" y="607.0" type="line"/>
      <point x="357.0" y="693.0" type="line"/>
      <point x="443.0" y="693.0" type="line"/>
      <point x="443.0" y="607.0" type="line"/>
    </contour>
    <contour>
      <point x="557.0" y="607.0" type="line"/>
      <point x="557.0" y="693.0" type="line"/>
      <point x="643.0" y="693.0" type="line"/>
      <point x="643.0" y="607.0" type="line"/>
    </contour>
    <contour>
      <point x="657.0" y="607.0" type="line"/>
      <point x="657.0" y="693.0" type="line"/>
      <point x="743.0" y="693.0" type="line"/>
      <point x="743.0" y="607.0" type="line"/>
    </contour>
    <contour>
      <point x="157.0" y="507.0" type="line"/>
      <point x="157.0" y="593.0" type="line"/>
      <point x="243.0" y="593.0" type="line"/>
      <point x="243.0" y="507.0" type="line"/>
    </contour>
    <contour>
      <point x="457.0" y="507.0" type="line"/>
      <point x="457.0" y="593.0" type="line"/>
      <point x="543.0" y="593.0" type="line"/>
      <point x="543.0" y="507.0" type="line"/>
    </contour>
    <contour>
      <point x="757.0" y="507.0" type="line"/>
      <point x="757.0" y="593.0" type="line"/>
      <point x="843.0" y="593.0" type="line"/>
      <point x="843.0" y="507.0" type="line"/>
    </contour>
    <contour>
      <point x="157.0" y="407.0" type="line"/>
      <point x="157.0" y="493.0" type="line"/>
      <point x="243.0" y="493.0" type="line"/>
      <point x="243.0" y="407.0" type="line"/>
    </contour>
    <contour>
      <point x="457.0" y="407.0" type="line"/>
      <point x="457.0" y="493.0" type="line"/>
      <point x="543.0" y="493.0" type="line"/>
      <point x="543.0" y="407.0" type="line"/>
    </contour>
    <contour>
      <point x="57.0" y="307.0" type="line"/>
      <point x="57.0" y="393.0" type="line"/>
      <point x="143.0" y="393.0" type="line"/>
      <point x="143.0" y="307.0" type="line"/>
    </contour>
    <contour>
      <point x="157.0" y="307.0" type="line"/>
      <point x="157.0" y="393.0" type="line"/>
      <point x="243.0" y="393.0" type="line"/>
      <point x="243.0" y="307.0" type="line"/>
    </contour>
    <contour>
      <point x="257.0" y="307.0" type="line"/>
      <point x="257.0" y="393.0" type="line"/>
      <point x="343.0" y="393.0" type="line"/>
      <point x="343.0" y="307.0" type="line"/>
    </contour>
    <contour>
      <point x="357.0" y="307.0" type="line"/>
      <point x="357.0" y="393.0" type="line"/>
      <point x="443.0" y="393.0" type="line"/>
      <point x="443.0" y="307.0" type="line"/>
    </contour>
    <contour>
      <point x="457.0" y="307.0" type="line"/>
      <point x="457.0" y="393.0" type="line"/>
      <point x="543.0" y="393.0" type="line"/>
      <point x="543.0" y="307.0" type="line"/>
    </contour>
    <contour>
      <point x="557.0" y="307.0" type="line"/>
      <point x="557.0" y="393.0" type="line"/>
      <point x="643.0" y="393.0" type="line"/>
      <point x="643.0" y="307.0" type="line"/>
    </contour>
    <contour>
      <point x="657.0" y="307.0" type="line"/>
      <point x="657.0" y="393.0" type="line"/>
      <point x="743.0" y="393.0" type="line"/>
      <point x="743.0" y="307.0" type="line"/>
    </contour>
    <contour>
      <point x="757.0" y="307.0" type="line"/>
      <point x="757.0" y="393.0" type="line"/>
      <point x="843.0" y="393.0" type="line"/>
      <point x="843.0" y="307.0" type="line"/>
    </contour>
    <contour>
      <point x="157.0" y="207.0" type="line"/>
      <point x="157.0" y="293.0" type="line"/>
      <point x="243.0" y="293.0" type="line"/>
      <point x="243.0" y="207.0" type="line"/>
    </contour>
    <contour>
      <point x="457.0" y="207.0" type="line"/>
      <point x="457.0" y="293.0" type="line"/>
      <point x="543.0" y="293.0" type="line"/>
      <point x="543.0" y="207.0" type="line"/>
    </contour>
    <contour>
      <point x="757.0" y="207.0" type="line"/>
      <point x="757.0" y="293.0" type="line"/>
      <point x="843.0" y="293.0" type="line"/>
      <point x="843.0" y="207.0" type="line"/>
    </contour>
    <contour>
      <point x="157.0" y="107.0" type="line"/>
      <point x="157.0" y="193.0" type="line"/>
      <point x="243.0" y="193.0" type="line"/>
      <point x="243.0" y="107.0" type="line"/>
    </contour>
    <contour>
      <point x="457.0" y="107.0" type="line"/>
      <point x="457.0" y="193.0" type="line"/>
      <point x="543.0" y="193.0" type="line"/>
      <point x="543.0" y="107.0" type="line"/>
    </contour>
    <contour>
      <point x="757.0" y="107.0" type="line"/>
      <point x="757.0" y="193.0" type="line"/>
      <point x="843.0" y="193.0" type="line"/>
      <point x="843.0" y="107.0" type="line"/>
    </contour>
    <contour>
      <point x="157.0" y="7.0" type="line"/>
      <point x="157.0" y="93.0" type="line"/>
      <point x="243.0" y="93.0" type="line"/>
      <point x="243.0" y="7.0" type="line"/>
    </contour>
    <contour>
      <point x="457.0" y="7.0" type="line"/>
      <point x="457.0" y="93.0" type="line"/>
      <point x="543.0" y="93.0" type="line"/>
      <point x="543.0" y="7.0" type="line"/>
    </contour>
    <contour>
      <point x="757.0" y="7.0" type="line"/>
      <point x="757.0" y="93.0" type="line"/>
      <point x="843.0" y="93.0" type="line"/>
      <point x="843.0" y="7.0" type="line"/>
    </contour>
  </outline>
</glyph>
<glyph name="men_xeh-ar" format="2">
  <advance width="1100"/>
  <unicode hex="FB17"/>
  <outline>
    <contour>
      <point x="357.0" y="607.0" type="line"/>
      <point x="357.0" y="693.0" type="line"/>
      <point x="443.0" y="693.0" type="line"/>
      <point x="443.0" y="607.0" type="line"/>
    </contour>
    <contour>
      <point x="457.0" y="607.0" type="line"/>
      <point x="457.0" y="693.0" type="line"/>
      <point x="543.0" y="693.0" type="line"/>
      <point x="543.0" y="607.0" type="line"/>
    </contour>
    <contour>
      <point x="357.0" y="507.0" type="line"/>
      <point x="357.0" y="593.0" type="line"/>
      <point x="443.0" y="593.0" type="line"/>
      <point x="443.0" y="507.0" type="line"/>
    </contour>
    <contour>
      <point x="57.0" y="407.0" type="line"/>
      <point x="57.0" y="493.0" type="line"/>
      <point x="143.0" y="493.0" type="line"/>
      <point x="143.0" y="407.0" type="line"/>
    </contour>
    <contour>
      <point x="357.0" y="407.0" type="line"/>
      <point x="357.0" y="493.0" type="line"/>
      <point x="443.0" y="493.0" type="line"/>
      <point x="443.0" y="407.0" type="line"/>
    </contour>
    <contour>
      <point x="57.0" y="307.0" type="line"/>
      <point x="57.0" y="393.0" type="line"/>
      <point x="143.0" y="393.0" type="line"/>
      <point x="143.0" y="307.0" type="line"/>
    </contour>
    <contour>
      <point x="357.0" y="307.0" type="line"/>
      <point x="357.0" y="393.0" type="line"/>
      <point x="443.0" y="393.0" type="line"/>
      <point x="443.0" y="307.0" type="line"/>
    </contour>
    <contour>
      <point x="57.0" y="207.0" type="line"/>
      <point x="57.0" y="293.0" type="line"/>
      <point x="143.0" y="293.0" type="line"/>
      <point x="143.0" y="207.0" type="line"/>
    </contour>
    <contour>
      <point x="357.0" y="207.0" type="line"/>
      <point x="357.0" y="293.0" type="line"/>
      <point x="443.0" y="293.0" type="line"/>
      <point x="443.0" y="207.0" type="line"/>
    </contour>
    <contour>
      <point x="57.0" y="107.0" type="line"/>
      <point x="57.0" y="193.0" type="line"/>
      <point x="143.0" y="193.0" type="line"/>
      <point x="143.0" y="107.0" type="line"/>
    </contour>
    <contour>
      <point x="257.0" y="107.0" type="line"/>
      <point x="257.0" y="193.0" type="line"/>
      <point x="343.0" y="193.0" type="line"/>
      <point x="343.0" y="107.0" type="line"/>
    </contour>
    <contour>
      <point x="357.0" y="107.0" type="line"/>
      <point x="357.0" y="193.0" type="line"/>
      <point x="443.0" y="193.0" type="line"/>
      <point x="443.0" y="107.0" type="line"/>
    </contour>
    <contour>
      <point x="157.0" y="7.0" type="line"/>
      <point x="157.0" y="93.0" type="line"/>
      <point x="243.0" y="93.0" type="line"/>
      <point x="243.0" y="7.0" type="line"/>
    </contour>
    <contour>
      <point x="357.0" y="7.0" type="line"/>
      <point x="357.0" y="93.0" type="line"/>
      <point x="443.0" y="93.0" type="line"/>
      <point x="443.0" y="7.0" type="line"/>
    </contour>
    <contour>
      <point x="557.0" y="-193.0" type="line"/>
      <point x="557.0" y="-107.0" type="line"/>
      <point x="643.0" y="-107.0" type="line"/>
      <point x="643.0" y="-193.0" type="line"/>
    </contour>
    <contour>
      <point x="557.0" y="-93.0" type="line"/>
      <point x="557.0" y="-7.0" type="line"/>
      <point x="643.0" y="-7.0" type="line"/>
      <point x="643.0" y="-93.0" type="line"/>
    </contour>
    <contour>
      <point x="957.0" y="7.0" type="line"/>
      <point x="957.0" y="93.0" type="line"/>
      <point x="1043.0" y="93.0" type="line"/>
      <point x="1043.0" y="7.0" type="line"/>
    </contour>
    <contour>
      <point x="857.0" y="7.0" type="line"/>
      <point x="857.0" y="93.0" type="line"/>
      <point x="943.0" y="93.0" type="line"/>
      <point x="943.0" y="7.0" type="line"/>
    </contour>
    <contour>
      <point x="557.0" y="7.0" type="line"/>
      <point x="557.0" y="93.0" type="line"/>
      <point x="643.0" y="93.0" type="line"/>
      <point x="643.0" y="7.0" type="line"/>
    </contour>
    <contour>
      <point x="957.0" y="107.0" type="line"/>
      <point x="957.0" y="193.0" type="line"/>
      <point x="1043.0" y="193.0" type="line"/>
      <point x="1043.0" y="107.0" type="line"/>
    </contour>
    <contour>
      <point x="757.0" y="107.0" type="line"/>
      <point x="757.0" y="193.0" type="line"/>
      <point x="843.0" y="193.0" type="line"/>
      <point x="843.0" y="107.0" type="line"/>
    </contour>
    <contour>
      <point x="557.0" y="107.0" type="line"/>
      <point x="557.0" y="193.0" type="line"/>
      <point x="643.0" y="193.0" type="line"/>
      <point x="643.0" y="107.0" type="line"/>
    </contour>
    <contour>
      <point x="957.0" y="207.0" type="line"/>
      <point x="957.0" y="293.0" type="line"/>
      <point x="1043.0" y="293.0" type="line"/>
      <point x="1043.0" y="207.0" type="line"/>
    </contour>
    <contour>
      <point x="757.0" y="207.0" type="line"/>
      <point x="757.0" y="293.0" type="line"/>
      <point x="843.0" y="293.0" type="line"/>
      <point x="843.0" y="207.0" type="line"/>
    </contour>
    <contour>
      <point x="557.0" y="207.0" type="line"/>
      <point x="557.0" y="293.0" type="line"/>
      <point x="643.0" y="293.0" type="line"/>
      <point x="643.0" y="207.0" type="line"/>
    </contour>
    <contour>
      <point x="957.0" y="307.0" type="line"/>
      <point x="957.0" y="393.0" type="line"/>
      <point x="1043.0" y="393.0" type="line"/>
      <point x="1043.0" y="307.0" type="line"/>
    </contour>
    <contour>
      <point x="757.0" y="307.0" type="line"/>
      <point x="757.0" y="393.0" type="line"/>
      <point x="843.0" y="393.0" type="line"/>
      <point x="843.0" y="307.0" type="line"/>
    </contour>
    <contour>
      <point x="557.0" y="307.0" type="line"/>
      <point x="557.0" y="393.0" type="line"/>
      <point x="643.0" y="393.0" type="line"/>
      <point x="643.0" y="307.0" type="line"/>
    </contour>
    <contour>
      <point x="957.0" y="407.0" type="line"/>
      <point x="957.0" y="493.0" type="line"/>
      <point x="1043.0" y="493.0" type="line"/>
      <point x="1043.0" y="407.0" type="line"/>
    </contour>
    <contour>
      <point x="657.0" y="407.0" type="line"/>
      <point x="657.0" y="493.0" type="line"/>
      <point x="743.0" y="493.0" type="line"/>
      <point x="743.0" y="407.0" type="line"/>
    </contour>
    <contour>
      <point x="557.0" y="407.0" type="line"/>
      <point x="557.0" y="493.0" type="line"/>
      <point x="643.0" y="493.0" type="line"/>
      <point x="643.0" y="407.0" type="line"/>
    </contour>
    <contour>
      <point x="557.0" y="507.0" type="line"/>
      <point x="557.0" y="593.0" type="line"/>
      <point x="643.0" y="593.0" type="line"/>
      <point x="643.0" y="507.0" type="line"/>
    </contour>
    <contour>
      <point x="557.0" y="607.0" type="line"/>
      <point x="557.0" y="693.0" type="line"/>
      <point x="643.0" y="693.0" type="line"/>
      <point x="643.0" y="607.0" type="line"/>
    </contour>
  </outline>
</glyph>
<glyph name="exclam.sc" format="2">
  <advance width="200"/>
  <outline>
    <contour>
      <point x="57.0" y="407.0" type="line"/>
      <point x="57.0" y="493.0" type="line"/>
      <point x="143.0" y="493.0" type="line"/>
      <point x="143.0" y="407.0" type="line"/>
    </contour>
    <contour>
      <point x="57.0" y="307.0" type="line"/>
      <point x="57.0" y="393.0" type="line"/>
      <point x="143.0" y="393.0" type="line"/>
      <point x="143.0" y="307.0" type="line"/>
    </contour>
    <contour>
      <point x="57.0" y="207.0" type="line"/>
      <point x="57.0" y="293.0" type="line"/>
      <point x="143.0" y="293.0" type="line"/>
      <point x="143.0" y="207.0" type="line"/>
    </contour>
    <contour>
      <point x="57.0" y="7.0" type="line"/>
      <point x="57.0" y="93.0" type="line"/>
      <point x="143.0" y="93.0" type="line"/>
      <point x="143.0" y="7.0" type="line"/>
    </contour>
  </outline>
</glyph>
<glyph name="ldot.sc" format="2">
  <advance width="600"/>
  <outline>
    <contour>
      <point x="357.0" y="307.0" type="line"/>
      <point x="357.0" y="393.0" type="line"/>
      <point x="443.0" y="393.0" type="line"/>
      <point x="443.0" y="307.0" type="line"/>
    </contour>
    <component base="l.sc"/>
  </outline>
</glyph>
